<svg version="1.2" xmlns="http://www.w3.org/2000/svg" viewBox="0 0 1270 840" width="1270" height="840">
	<title>source file-ai</title>
	<defs>
		<linearGradient id="g1" x1="341.3" y1="28.2" x2="928.7" y2="28.2" gradientUnits="userSpaceOnUse">
			<stop offset="0" stop-color="#0e7f49"/>
			<stop offset="1" stop-color="#002189"/>
		</linearGradient>
		<linearGradient id="g2" x1="5.3" y1="771.1" x2="1275.1" y2="771.1" gradientUnits="userSpaceOnUse">
			<stop offset="0" stop-color="#0e7f49"/>
			<stop offset="1" stop-color="#002189"/>
		</linearGradient>
		<linearGradient id="g3" x1="5.3" y1="784.2" x2="1275.1" y2="784.2" gradientUnits="userSpaceOnUse">
			<stop offset="0" stop-color="#0e7f49"/>
			<stop offset="1" stop-color="#002189"/>
		</linearGradient>
		<linearGradient id="g4" x1="5.3" y1="810.6" x2="1275.1" y2="810.6" gradientUnits="userSpaceOnUse">
			<stop offset="0" stop-color="#0e7f49"/>
			<stop offset="1" stop-color="#002189"/>
		</linearGradient>
		<linearGradient id="g5" x1="5.3" y1="797.3" x2="1275.1" y2="797.3" gradientUnits="userSpaceOnUse">
			<stop offset="0" stop-color="#0e7f49"/>
			<stop offset="1" stop-color="#002189"/>
		</linearGradient>
		<linearGradient id="g6" x1="5.3" y1="757.9" x2="1275.1" y2="757.9" gradientUnits="userSpaceOnUse">
			<stop offset="0" stop-color="#0e7f49"/>
			<stop offset="1" stop-color="#002189"/>
		</linearGradient>
		<linearGradient id="g7" x1="5.3" y1="731.7" x2="1275.1" y2="731.7" gradientUnits="userSpaceOnUse">
			<stop offset="0" stop-color="#0e7f49"/>
			<stop offset="1" stop-color="#002189"/>
		</linearGradient>
		<linearGradient id="g8" x1="5.3" y1="744.8" x2="1275.1" y2="744.8" gradientUnits="userSpaceOnUse">
			<stop offset="0" stop-color="#0e7f49"/>
			<stop offset="1" stop-color="#002189"/>
		</linearGradient>
		<linearGradient id="g9" x1="5.3" y1="731.7" x2="1275.1" y2="731.7" gradientUnits="userSpaceOnUse">
			<stop offset="0" stop-color="#0e7f49"/>
			<stop offset="1" stop-color="#002189"/>
		</linearGradient>
		<linearGradient id="g10" x1="5.3" y1="731.7" x2="1275.1" y2="731.7" gradientUnits="userSpaceOnUse">
			<stop offset="0" stop-color="#0e7f49"/>
			<stop offset="1" stop-color="#002189"/>
		</linearGradient>
		<linearGradient id="g11" x1="5.3" y1="729.6" x2="1275.1" y2="729.6" gradientUnits="userSpaceOnUse">
			<stop offset="0" stop-color="#0e7f49"/>
			<stop offset="1" stop-color="#002189"/>
		</linearGradient>
		<linearGradient id="g12" x1="5.3" y1="731.7" x2="1275.1" y2="731.7" gradientUnits="userSpaceOnUse">
			<stop offset="0" stop-color="#0e7f49"/>
			<stop offset="1" stop-color="#002189"/>
		</linearGradient>
		<linearGradient id="g13" x1="5.3" y1="731.7" x2="1275.1" y2="731.7" gradientUnits="userSpaceOnUse">
			<stop offset="0" stop-color="#0e7f49"/>
			<stop offset="1" stop-color="#002189"/>
		</linearGradient>
		<linearGradient id="g14" x1="5.3" y1="757.9" x2="1275.1" y2="757.9" gradientUnits="userSpaceOnUse">
			<stop offset="0" stop-color="#0e7f49"/>
			<stop offset="1" stop-color="#002189"/>
		</linearGradient>
		<linearGradient id="g15" x1="5.3" y1="797.3" x2="1275.1" y2="797.3" gradientUnits="userSpaceOnUse">
			<stop offset="0" stop-color="#0e7f49"/>
			<stop offset="1" stop-color="#002189"/>
		</linearGradient>
		<linearGradient id="g16" x1="5.3" y1="784.2" x2="1275.1" y2="784.2" gradientUnits="userSpaceOnUse">
			<stop offset="0" stop-color="#0e7f49"/>
			<stop offset="1" stop-color="#002189"/>
		</linearGradient>
		<linearGradient id="g17" x1="5.3" y1="810.6" x2="1275.1" y2="810.6" gradientUnits="userSpaceOnUse">
			<stop offset="0" stop-color="#0e7f49"/>
			<stop offset="1" stop-color="#002189"/>
		</linearGradient>
		<linearGradient id="g18" x1="5.3" y1="744.8" x2="1275.1" y2="744.8" gradientUnits="userSpaceOnUse">
			<stop offset="0" stop-color="#0e7f49"/>
			<stop offset="1" stop-color="#002189"/>
		</linearGradient>
		<linearGradient id="g19" x1="5.3" y1="771.1" x2="1275.1" y2="771.1" gradientUnits="userSpaceOnUse">
			<stop offset="0" stop-color="#0e7f49"/>
			<stop offset="1" stop-color="#002189"/>
		</linearGradient>
		<linearGradient id="g20" x1="5.3" y1="771.1" x2="1275.1" y2="771.1" gradientUnits="userSpaceOnUse">
			<stop offset="0" stop-color="#0e7f49"/>
			<stop offset="1" stop-color="#002189"/>
		</linearGradient>
		<linearGradient id="g21" x1="5.3" y1="757.9" x2="1275.1" y2="757.9" gradientUnits="userSpaceOnUse">
			<stop offset="0" stop-color="#0e7f49"/>
			<stop offset="1" stop-color="#002189"/>
		</linearGradient>
		<linearGradient id="g22" x1="5.3" y1="784.2" x2="1275.1" y2="784.2" gradientUnits="userSpaceOnUse">
			<stop offset="0" stop-color="#0e7f49"/>
			<stop offset="1" stop-color="#002189"/>
		</linearGradient>
		<linearGradient id="g23" x1="5.3" y1="797.3" x2="1275.1" y2="797.3" gradientUnits="userSpaceOnUse">
			<stop offset="0" stop-color="#0e7f49"/>
			<stop offset="1" stop-color="#002189"/>
		</linearGradient>
		<linearGradient id="g24" x1="5.3" y1="810.6" x2="1275.1" y2="810.6" gradientUnits="userSpaceOnUse">
			<stop offset="0" stop-color="#0e7f49"/>
			<stop offset="1" stop-color="#002189"/>
		</linearGradient>
		<linearGradient id="g25" x1="5.3" y1="731.7" x2="1275.1" y2="731.7" gradientUnits="userSpaceOnUse">
			<stop offset="0" stop-color="#0e7f49"/>
			<stop offset="1" stop-color="#002189"/>
		</linearGradient>
		<linearGradient id="g26" x1="5.3" y1="731.7" x2="1275.1" y2="731.7" gradientUnits="userSpaceOnUse">
			<stop offset="0" stop-color="#0e7f49"/>
			<stop offset="1" stop-color="#002189"/>
		</linearGradient>
		<linearGradient id="g27" x1="5.3" y1="771.1" x2="1275.1" y2="771.1" gradientUnits="userSpaceOnUse">
			<stop offset="0" stop-color="#0e7f49"/>
			<stop offset="1" stop-color="#002189"/>
		</linearGradient>
		<linearGradient id="g28" x1="5.3" y1="784.2" x2="1275.1" y2="784.2" gradientUnits="userSpaceOnUse">
			<stop offset="0" stop-color="#0e7f49"/>
			<stop offset="1" stop-color="#002189"/>
		</linearGradient>
		<linearGradient id="g29" x1="5.3" y1="731.7" x2="1275.1" y2="731.7" gradientUnits="userSpaceOnUse">
			<stop offset="0" stop-color="#0e7f49"/>
			<stop offset="1" stop-color="#002189"/>
		</linearGradient>
		<linearGradient id="g30" x1="5.3" y1="757.9" x2="1275.1" y2="757.9" gradientUnits="userSpaceOnUse">
			<stop offset="0" stop-color="#0e7f49"/>
			<stop offset="1" stop-color="#002189"/>
		</linearGradient>
		<linearGradient id="g31" x1="5.3" y1="797.3" x2="1275.1" y2="797.3" gradientUnits="userSpaceOnUse">
			<stop offset="0" stop-color="#0e7f49"/>
			<stop offset="1" stop-color="#002189"/>
		</linearGradient>
		<linearGradient id="g32" x1="5.3" y1="810.6" x2="1275.1" y2="810.6" gradientUnits="userSpaceOnUse">
			<stop offset="0" stop-color="#0e7f49"/>
			<stop offset="1" stop-color="#002189"/>
		</linearGradient>
		<linearGradient id="g33" x1="5.3" y1="731.7" x2="1275.1" y2="731.7" gradientUnits="userSpaceOnUse">
			<stop offset="0" stop-color="#0e7f49"/>
			<stop offset="1" stop-color="#002189"/>
		</linearGradient>
		<linearGradient id="g34" x1="5.3" y1="744.8" x2="1275.1" y2="744.8" gradientUnits="userSpaceOnUse">
			<stop offset="0" stop-color="#0e7f49"/>
			<stop offset="1" stop-color="#002189"/>
		</linearGradient>
		<linearGradient id="g35" x1="5.3" y1="731.7" x2="1275.1" y2="731.7" gradientUnits="userSpaceOnUse">
			<stop offset="0" stop-color="#0e7f49"/>
			<stop offset="1" stop-color="#002189"/>
		</linearGradient>
		<linearGradient id="g36" x1="5.3" y1="731.7" x2="1275.1" y2="731.7" gradientUnits="userSpaceOnUse">
			<stop offset="0" stop-color="#0e7f49"/>
			<stop offset="1" stop-color="#002189"/>
		</linearGradient>
		<linearGradient id="g37" x1="5.3" y1="744.8" x2="1275.1" y2="744.8" gradientUnits="userSpaceOnUse">
			<stop offset="0" stop-color="#0e7f49"/>
			<stop offset="1" stop-color="#002189"/>
		</linearGradient>
		<linearGradient id="g38" x1="5.3" y1="731.7" x2="1275.1" y2="731.7" gradientUnits="userSpaceOnUse">
			<stop offset="0" stop-color="#0e7f49"/>
			<stop offset="1" stop-color="#002189"/>
		</linearGradient>
		<linearGradient id="g39" x1="5.3" y1="729.6" x2="1275.1" y2="729.6" gradientUnits="userSpaceOnUse">
			<stop offset="0" stop-color="#0e7f49"/>
			<stop offset="1" stop-color="#002189"/>
		</linearGradient>
		<linearGradient id="g40" x1="5.3" y1="729.6" x2="1275.1" y2="729.6" gradientUnits="userSpaceOnUse">
			<stop offset="0" stop-color="#0e7f49"/>
			<stop offset="1" stop-color="#002189"/>
		</linearGradient>
		<linearGradient id="g41" x1="5.3" y1="810.6" x2="1275.1" y2="810.6" gradientUnits="userSpaceOnUse">
			<stop offset="0" stop-color="#0e7f49"/>
			<stop offset="1" stop-color="#002189"/>
		</linearGradient>
		<linearGradient id="g42" x1="5.3" y1="757.9" x2="1275.1" y2="757.9" gradientUnits="userSpaceOnUse">
			<stop offset="0" stop-color="#0e7f49"/>
			<stop offset="1" stop-color="#002189"/>
		</linearGradient>
		<linearGradient id="g43" x1="5.3" y1="771.1" x2="1275.1" y2="771.1" gradientUnits="userSpaceOnUse">
			<stop offset="0" stop-color="#0e7f49"/>
			<stop offset="1" stop-color="#002189"/>
		</linearGradient>
		<linearGradient id="g44" x1="5.3" y1="784.2" x2="1275.1" y2="784.2" gradientUnits="userSpaceOnUse">
			<stop offset="0" stop-color="#0e7f49"/>
			<stop offset="1" stop-color="#002189"/>
		</linearGradient>
		<linearGradient id="g45" x1="5.3" y1="731.7" x2="1275.1" y2="731.7" gradientUnits="userSpaceOnUse">
			<stop offset="0" stop-color="#0e7f49"/>
			<stop offset="1" stop-color="#002189"/>
		</linearGradient>
		<linearGradient id="g46" x1="5.3" y1="729.6" x2="1275.1" y2="729.6" gradientUnits="userSpaceOnUse">
			<stop offset="0" stop-color="#0e7f49"/>
			<stop offset="1" stop-color="#002189"/>
		</linearGradient>
	</defs>
	<style>
		.s0 { fill: url(#g1) } 
		.s1 { fill: url(#g2) } 
		.s2 { fill: url(#g3) } 
		.s3 { fill: url(#g4) } 
		.s4 { fill: url(#g5) } 
		.s5 { fill: url(#g6) } 
		.s6 { fill: url(#g7) } 
		.s7 { fill: url(#g8) } 
		.s8 { fill: url(#g9) } 
		.s9 { fill: url(#g10) } 
		.s10 { fill: url(#g11) } 
		.s11 { fill: url(#g12) } 
		.s12 { fill: url(#g13) } 
		.s13 { fill: url(#g14) } 
		.s14 { fill: url(#g15) } 
		.s15 { fill: url(#g16) } 
		.s16 { fill: url(#g17) } 
		.s17 { fill: url(#g18) } 
		.s18 { fill: url(#g19) } 
		.s19 { fill: url(#g20) } 
		.s20 { fill: url(#g21) } 
		.s21 { fill: url(#g22) } 
		.s22 { fill: url(#g23) } 
		.s23 { fill: url(#g24) } 
		.s24 { fill: url(#g25) } 
		.s25 { fill: url(#g26) } 
		.s26 { fill: url(#g27) } 
		.s27 { fill: url(#g28) } 
		.s28 { fill: url(#g29) } 
		.s29 { fill: url(#g30) } 
		.s30 { fill: url(#g31) } 
		.s31 { fill: url(#g32) } 
		.s32 { fill: url(#g33) } 
		.s33 { fill: url(#g34) } 
		.s34 { fill: url(#g35) } 
		.s35 { fill: url(#g36) } 
		.s36 { fill: url(#g37) } 
		.s37 { fill: url(#g38) } 
		.s38 { fill: url(#g39) } 
		.s39 { fill: url(#g40) } 
		.s40 { fill: url(#g41) } 
		.s41 { fill: url(#g42) } 
		.s42 { fill: url(#g43) } 
		.s43 { fill: url(#g44) } 
		.s44 { fill: url(#g45) } 
		.s45 { fill: url(#g46) } 
	</style>
	<g id="Layer 1">
		<g id="&lt;Group&gt;">
			<path id="&lt;Compound Path&gt;" class="s0" d="m816.8 185.2c34.1 11.1 61.1 38.2 71.9 72.5 3.3 10.5 5 21.7 5 33.2 0 22.7-6.8 43.7-18.5 61.3-14.4 21.7-36.1 38-61.7 45.4q-7.1 2.1-14.6 3.2c0 0-14 1.2-35.9 1.2h-15.8-212.9-35v140.5 35h35 121.8c73 0 133.6-53.8 144.3-123.9-5.8-1.1-11.7-1.6-17.7-1.6h-17.5q-0.6 3.5-1.5 7c-12.3 47.9-55.9 83.5-107.6 83.5h-121.8v-98.2-7.3h217.7 30.7c11.9 0 23.3 1.9 34.1 5.3 23 7.5 42.8 22.2 56.5 41.6 0 0 12 16.3 18.1 41.6 1.5 7.3 2.3 14.8 2.3 22.5 0 9.5-1.2 18.8-3.4 27.6-12.3 47.9-55.9 83.5-107.6 83.5h-406.4v-7.4-581-7.5h279.8c49.7 0 91.8 32.8 106 77.9 3.3 10.5 5 21.6 5 33.2 0 22.6-6.8 43.7-18.5 61.3-19.9 30-53.9 49.8-92.5 49.8h-121.8v-98.3-7.2h217.7q0.1-2.8 0.1-5.6c0-9.8-1.4-19.4-4.3-28.7q-0.2-0.4-0.3-0.7h-213.2-35v175.5h35 121.8c37.3 0 70.5 18.5 90.6 46.9 0 0 5.4 7.3 10.8 19.7l37.2-0.8c-3-8-11.4-28.8-17.6-36.5-13.2-19.4-30.9-35.6-51.7-46.8 21.5-11.7 39.8-28.6 53.1-49.1 11.1-17 18.7-36.4 21.9-57.3q1.2-7.3 1.5-14.9c1-15.5-2.6-35.8-2.6-35.8q-1.5-7.9-3.9-15.4c-18.7-59.2-74.1-102.2-139.3-102.2h-279.8-35v35 595.9 35h35 406.4c77.1 0 140.5-60.1 145.7-136q0.3-5 0.3-10.1c0-14.6-2.1-28.7-6.2-42 0 0-11.1-30.1-18.8-39.6-13.2-19.5-31-35.7-51.7-46.9 21.5-11.7 39.8-28.6 53.1-49 14.9-22.9 23.6-50.3 23.6-79.6q0-6.7-0.6-13.3c-5.7-63.5-52.2-115.3-113-129.1 0 0 1.7 8.1 2.1 18.8 0.4 11.1-0.4 17.9-0.4 17.9z"/>
			<g id="&lt;Group&gt;">
				<g id="&lt;Group&gt;">
					<path id="&lt;Path&gt;" class="s1" d="m75.8 771.1h-59l57.9 6.1z"/>
					<path id="&lt;Path&gt;" class="s2" d="m73.5 784.2h-59l57.9 6.1z"/>
					<path id="&lt;Path&gt;" class="s3" d="m67.8 816.7l1.1-6.1h-59.1z"/>
					<path id="&lt;Path&gt;" class="s4" d="m70.1 803.5l1.1-6.2h-59.1z"/>
					<path id="&lt;Path&gt;" class="s5" d="m78.2 757.9h-59.1l58 6.2z"/>
					<path id="&lt;Path&gt;" class="s6" d="m82.7 731.7h-59l57.9 6.1z"/>
					<path id="&lt;Path&gt;" class="s7" d="m80.3 744.8h-58.9l58 6.2z"/>
					<path id="&lt;Path&gt;" class="s8" d="m198.3 731.7h-48l41.9 4.5q2.1-2 6.1-4.5z"/>
					<path id="&lt;Compound Path&gt;" fill-rule="evenodd" class="s9" d="m182.5 815.6l-46.7-5q-6.5 6.5-17.2 6.5h-46.7l15-85.4h42.1q9.8 0 14.3 3.4 4.2 3.2 4.4 9.7h37.6q-1.9 3.6-2.7 5.5l-34.9-3.7q-0.1 6.4-2.1 11.3h34.1l-1.6 5.6-33.4-3.5q-0.7 1.4-1.5 2.7-4.6 6.7-11.2 8.4h44.4l-0.4 2.7q-0.2 1.1-0.5 3l-41.7-4.4q8.6 2.5 10.1 11.8h30.6q-0.4 3.1-0.4 5.7l-30-3.2q0.1 0.7 0.1 1.5 0 4.8-1.1 9.1h31.1q0.6 3.8 1 5.8l-32.7-3.6q-1.7 5.1-5 9.3-0.8 0.9-1.6 1.8h42.5q1.7 3.1 4.1 5zm-64.2-28.3q0-4.2-4.3-4.2h-10.3l-2.4 13.9h10.1q3.4 0 5.2-2.7 1.7-2.7 1.7-7zm3.3-33q0-3.9-3.8-3.9h-8.2l-2.3 12.7h8q6.3 0 6.3-8.8z"/>
					<path id="&lt;Compound Path&gt;" fill-rule="evenodd" class="s10" d="m249.5 797.3h38.9l-1.1 6.2-38.9-4.2q-3.6 6.6-8.8 11.3h46.5l-1.1 6.1-46.8-4.9q-9.6 7.4-26.8 7.4-18.6 0-25.9-6.8-7.4-6.7-7.4-20.8 0-6.7 1.9-17.7 1.9-11 5-19 3.2-8 8.5-13.9 10.3-11.4 32.4-11.4 9.6 0 16.1 2.1h57.9l-1.1 6.1-56.3-5.9q5 1.6 8.2 4.5 3.6 3.3 5.4 8.4h41.4l-0.9 6.2-39.9-4.3q1.3 4.7 1.3 10.6 0 0.3 0 0.6h37.4l-1.1 6.2-36.3-3.9q-0.2 5.4-1 10.9h36l-1.1 6.1-35.3-3.7q-0.9 5.2-2.3 10.7h36.4l-1.1 6.1-35.9-3.8q-0.1 0.1-0.1 0.2-1.7 5.8-4.1 10.6zm-17.2-44.3h-10.9q-5.2 0-7.8 1.3-2.6 1.3-3.4 6l-6.3 35.5h10.8q5.3 0 7.9-1.3 2.6-1.3 3.5-5.9z"/>
					<path id="&lt;Path&gt;" class="s11" d="m342.7 785.4l3.7-20.3h-22.2l1.9-11.5h24.1l6.4-19.3 33.2 3.5 1.1-6.1h-33.5-25.4-27.9l-15 85.4h25.9l5.5-31.7z"/>
					<path id="&lt;Path&gt;" class="s12" d="m433.7 785.4l3.7-20.3h-22.2l2-11.5h24l2.1-6.4 35.4 3.8 0.9-6.2h-35.5l3.5-10.5 33.3 3.5 1-6.1h-33.4-25.5-27.9l-15 85.4h26l5.5-31.7z"/>
					<path id="&lt;Path&gt;" class="s13" d="m386.4 757.9h-35.1l34 6.2z"/>
					<path id="&lt;Path&gt;" class="s14" d="m378.3 803.5l1.1-6.2h-59z"/>
					<path id="&lt;Path&gt;" class="s15" d="m380.7 790.3l1.1-6.1h-35.8z"/>
					<path id="&lt;Path&gt;" class="s16" d="m376 816.7l1.1-6.1h-59z"/>
					<path id="&lt;Path&gt;" class="s17" d="m388.6 744.8h-34.1l33.1 6.2z"/>
					<path id="&lt;Path&gt;" class="s18" d="m384.1 771.1h-36.5l35.4 6.1z"/>
					<path id="&lt;Path&gt;" class="s19" d="m475.1 771.1h-36.5l35.4 6.1z"/>
					<path id="&lt;Path&gt;" class="s20" d="m477.4 757.9h-36.5l35.4 6.2z"/>
					<path id="&lt;Path&gt;" class="s21" d="m471.7 790.3l1.1-6.1h-37.2z"/>
					<path id="&lt;Path&gt;" class="s22" d="m469.4 803.5l1.1-6.2h-58z"/>
					<path id="&lt;Path&gt;" class="s23" d="m467 816.7l1.1-6.1h-57.8z"/>
					<path id="&lt;Path&gt;" class="s24" d="m502.5 786.3l38.1 4 1.1-6.1h-38.8l2-11 38 4 1.1-6.1h-38.8l2-11 38 4 1.1-6.2h-38.8l2-11 38.1 4.1 0.9-6.2h-38.7l2-11 38 4 1-6.1h-38.6-20.3-5.7l-15.1 85.4h26l0.8-4.4 38 4 1.1-6.1h-38.7l1.9-11.2 38.1 4.1 1.1-6.2h-38.8z"/>
					<path id="&lt;Path&gt;" class="s25" d="m601.3 731.7l-6.6 36.9h-1.1q0.3-2.2 0.3-3.9 0-1.7-0.4-2.7l-13.9-30.3h-24.5l-15.1 85.4h26l6.4-36.9h1.1q-0.2 2.2-0.2 3.9 0 1.7 0.5 2.7l14 30.3h24.4l15.1-85.4z"/>
					<path id="&lt;Path&gt;" class="s26" d="m683.3 771.1h-59l57.9 6.1z"/>
					<path id="&lt;Path&gt;" class="s27" d="m679.9 790.3l1.1-6.1h-59z"/>
					<path id="&lt;Compound Path&gt;" fill-rule="evenodd" class="s28" d="m750.6 797.3h33.9l-1.1 6.2-33.6-3.6q-1.6 4.9-4.8 8.9-0.8 0.9-1.6 1.8h38.8l-1.1 6.1-39.9-4.2q-6 4.6-15.1 4.6h-46.7l15-85.4h42.1q0.4 0 0.7 0h-0.1 58.9l-1.1 6.1-50-5.3q3.6 0.9 5.9 2.6 4.2 3.2 4.4 9.7h38.5l-1 6.2-37.5-4q-0.2 6.1-2.1 10.9h38.4l-1.1 6.2-38.2-4.1q-0.7 1.5-1.5 2.7-4.6 6.7-11.2 8.4h49.6l-1.1 6.1-47.2-5q9.1 2.4 10.6 12h35.4l-1.1 6.1-34.1-3.6q0.1 0.7 0.1 1.5 0 4.8-1.1 9.1zm-24.7-10q0-4.2-4.4-4.2h-10.3l-2.4 13.9h10.1q3.4 0 5.2-2.7 1.7-2.7 1.8-7zm3.2-33q0-3.9-3.8-3.9h-8.2l-2.3 12.7h8q6.3 0 6.3-8.8z"/>
					<path id="&lt;Path&gt;" class="s29" d="m685.7 757.9h-59.1l58 6.2z"/>
					<path id="&lt;Path&gt;" class="s30" d="m677.6 803.5l1.1-6.2h-59.1z"/>
					<path id="&lt;Path&gt;" class="s31" d="m675.3 816.7l1.1-6.1h-59.1z"/>
					<path id="&lt;Path&gt;" class="s32" d="m690.2 731.7h-58.9l57.8 6.1z"/>
					<path id="&lt;Path&gt;" class="s33" d="m687.8 744.8h-58.9l58 6.2z"/>
					<path id="&lt;Path&gt;" class="s34" d="m890.8 731.7h-47.9l41.8 4.5q2.2-2 6.1-4.5z"/>
					<path id="&lt;Path&gt;" class="s35" d="m870.9 810.6h-32.6l1.8-10.5 27.6 3q-0.4-2-0.9-5.8h-26.2l0.3-2h-25.9l1.9-10.7 49.7 5.3q0-2.6 0.5-5.7h-50.2l2.3-12.6 48.8 5.2q0.3-1.9 0.6-3l0.4-2.7h-49.8l2.3-12.7 49.1 5.1 1.7-5.6h-50.7l4.6-26.2h-26l-15 85.4h51.9l1-5.4 36.9 3.9q-2.3-1.9-4.1-5z"/>
					<path id="&lt;Path&gt;" class="s36" d="m875.1 750.3q0.8-1.9 2.8-5.5h-53.9z"/>
					<path id="&lt;Path&gt;" class="s37" d="m1002.2 731.7h-47.9l41.8 4.5q2.2-2 6.1-4.5z"/>
					<path id="&lt;Compound Path&gt;" fill-rule="evenodd" class="s38" d="m941.2 799c-2.5 4.5-5.6 8.5-9.1 11.6q-9.7 8.6-28.2 8.6-18.5 0-25.9-6.8-7.4-6.7-7.4-20.8 0-6.7 1.9-17.7 1.9-11 5.1-19 3.1-8 8.5-13.9 10.2-11.4 32.4-11.4 17.3 0 24.7 6.8 3.6 3.3 5.5 8.4h40.6q-2 3.6-2.8 5.5l-37.4-4q1.5 4.8 1.5 11 0 0.3 0 0.6h33.1l-1.7 5.6-31.5-3.3q-0.2 5.4-1 10.9h30.9l-0.4 2.7q-0.3 1.1-0.6 3l-30.3-3.2q-0.8 5.2-2.3 10.6h31.7q-0.4 3.1-0.4 5.7l-31.9-3.4q0 0.1-0.1 0.2-1.6 5.8-4 10.6h36.1q0.5 3.8 0.9 5.8zm-16.2-46h-11q-5.2 0-7.8 1.3-2.6 1.3-3.4 6l-6.3 35.5h10.8q5.4 0 7.9-1.3 2.6-1.3 3.5-5.9z"/>
					<path id="&lt;Path&gt;" class="s39" d="m1038.6 792.7q-9.1 3.2-20.2 3.2-5.2 0-10.1-1l6.3-35.9q0.6-4.1 3.6-5.4 3-1.4 10.1-1.4 7 0 15.1 1.9l2.6-7 36.5 3.9 0.9-6.2h-36.6l3.9-10.6 34 3.6 1.1-6.1h-39.1q-2.2-0.6-5.2-1-6.4-1.1-11.5-1.1-21.7 0-31.8 10.7-10 10.7-14.1 34.2-1.9 11.5-1.9 17.3 0 14 7.4 20.7 7.5 6.7 24.7 6.7 13.4 0 22.1-3.6l0.3-2.5 34.2 3.6 1.1-6.1h-35.1l1-10.9 35.3 3.8 1.1-6.2h-36.1z"/>
					<path id="&lt;Path&gt;" class="s40" d="m982.3 810.6h-43.2l47.3 5q-2.3-1.9-4.1-5z"/>
					<path id="&lt;Path&gt;" class="s41" d="m1081.3 757.9h-59.1l58 6.2z"/>
					<path id="&lt;Path&gt;" class="s42" d="m1078.9 771.1h-59l57.9 6.1z"/>
					<path id="&lt;Path&gt;" class="s43" d="m1075.5 790.3l1.1-6.1h-59z"/>
					<path id="&lt;Path&gt;" class="s44" d="m1183.4 797.3h-44.8l-3.7-13.1 72 6.1q-8.9-1.7-13.4-6.1h-58.7l-3-10.5 1.5-2.4 55.5 5.9q-0.8-2.4-1.1-6.1h-54.2l7.6-12 46.6 5q0.3-3.4 1-6.2h-46.8l7.3-11.4 41.1 4.3 2.1-6h-42.1l7.4-11.6 38.9 4.1q2.9-3.6 6-5.6h-44-14.7-13.3l-17.2 28.3q-1.4 2.2-2.5 6.6h-1.1l6.2-34.9h-26l-15 85.4h25.9l6.5-37.1h1.1l-0.2 2.5q0 2.6 0.4 4l7.6 30.6h28l-1.4-4.9 34 4.4 2.1-6h-36.6l-3.6-12.5 42.5 5.2z"/>
					<path id="&lt;Path&gt;" class="s45" d="m1234 752.9q7.2 0 19.1 2l7.1-21.8q-13.3-3.5-30.6-3.5-17.3 0-25.6 6.6-8.3 6.6-11.5 24.1-0.8 4.5-0.8 8.2 0 8.4 5.4 13.1 5.4 4.6 18.4 5.9l11.3 1.1-1.1 6.8q-6 0.8-15.5 0.8-9.5 0-21-3.1l-7.6 22.5q13.8 3.6 30.8 3.6 9.2 0 15.5-1 4.5-0.5 7.4-1.7 2.9-1.1 6.4-3.4 3.5-2.3 5.7-5.5 2.3-3.2 4.3-8 3.7-9.3 3.7-18 0-8.6-5.9-13.7-5.8-5.2-19.8-6.7l-9.1-0.9 1-6.7q5.2-0.7 12.4-0.7z"/>
				</g>
			</g>
		</g>
	</g>
</svg>